<?xml version="1.0" encoding="UTF-8" standalone="no"?>
<!DOCTYPE svg PUBLIC "-//W3C//DTD SVG 1.1//EN" "http://www.w3.org/Graphics/SVG/1.1/DTD/svg11.dtd">
<svg width="100%" height="100%" viewBox="0 0 1100 1100" version="1.1" xmlns="http://www.w3.org/2000/svg" xmlns:xlink="http://www.w3.org/1999/xlink" xml:space="preserve" xmlns:serif="http://www.serif.com/" style="fill-rule:evenodd;clip-rule:evenodd;stroke-linecap:round;stroke-linejoin:round;stroke-miterlimit:1.5;">
    <g transform="matrix(1,0,0,1,90,90)">
        <g transform="matrix(0.963128,0,0,0.96882,29,25)">
            <path d="M895,222.436C895,99.67 794.741,0 671.25,0L223.75,0C100.259,0 0,99.67 0,222.436L0,675.564C0,798.33 100.259,898 223.75,898L671.25,898C794.741,898 895,798.33 895,675.564L895,222.436Z" style="fill:white;fill-opacity:0;stroke:white;stroke-width:33.13px;"/>
        </g>
        <g transform="matrix(1,0,0,1,2.83473,-34.9103)">
            <g transform="matrix(1,0,0,1,27,33.6426)">
                <circle cx="235" cy="236" r="120" style="fill:white;fill-opacity:0;stroke:white;stroke-width:32px;"/>
            </g>
            <g transform="matrix(1,0,0,1,417.331,33.6426)">
                <circle cx="235" cy="236" r="120" style="fill:white;fill-opacity:0;stroke:white;stroke-width:32px;"/>
            </g>
            <g transform="matrix(1,0,0,1,225,484.178)">
                <circle cx="235" cy="236" r="120" style="fill:white;fill-opacity:0;stroke:white;stroke-width:32px;"/>
            </g>
            <g transform="matrix(0.557069,0.00402028,-0.00402028,0.557069,221.233,413.478)">
                <rect x="426" y="165" width="10" height="167" style="fill:white;stroke:white;stroke-width:43.08px;"/>
            </g>
            <g transform="matrix(1,0,0,1,-2.5,7.5)">
                <circle cx="462.5" cy="452.5" r="36.5" style="fill:white;stroke:white;stroke-width:32px;"/>
            </g>
            <g transform="matrix(0.38115,0.406285,-0.406285,0.38115,469.017,119.818)">
                <rect x="426" y="165" width="10" height="167" style="fill:white;stroke:white;stroke-width:43.08px;"/>
            </g>
            <g transform="matrix(0.39309,-0.394743,0.394743,0.39309,126.815,463.033)">
                <rect x="426" y="165" width="10" height="167" style="fill:white;stroke:white;stroke-width:43.08px;"/>
            </g>
        </g>
    </g>
</svg>
