<?xml version="1.0" encoding="utf-8"?>
<!-- Generator: Adobe Illustrator 27.8.1, SVG Export Plug-In . SVG Version: 6.00 Build 0)  -->
<svg version="1.1" xmlns="http://www.w3.org/2000/svg" xmlns:xlink="http://www.w3.org/1999/xlink" x="0px" y="0px"
	 viewBox="0 0 150 57.4" style="enable-background:new 0 0 150 57.4;" xml:space="preserve">
<style type="text/css">
	.st0{fill-rule:evenodd;clip-rule:evenodd;fill:#FF000F;}
	.st1{fill:#FF000F;}
</style>
<g id="ABB_Logo_RGB_33px">
	<g>
		<polygon class="st0" points="9.8,29.6 0,57.4 14.5,57.4 18.6,45.3 27.9,45.3 27.9,29.6 		"/>
		<polygon class="st0" points="27.9,0 20.3,0 10.5,27.9 27.9,27.9 		"/>
		<polygon class="st0" points="29.6,45.3 38.9,45.3 42.9,57.4 57.4,57.4 47.6,29.6 29.6,29.6 		"/>
		<polygon class="st0" points="47,27.9 37.1,0 29.6,0 29.6,27.9 		"/>
		<g>
			<path class="st1" d="M146.7,27.9c-1.8-2.4-4.1-4.4-6.8-5.7c3.2-2.2,5.2-5.9,5.2-10c0-6.7-5.5-12.2-12.2-12.2h-4.1v27.9H146.7z"/>
			<path class="st1" d="M128.8,29.6v27.9h2.9c10.3,0,18.3-8.3,18.3-18.6c0-3.4-0.6-6.6-2.2-9.3H128.8z"/>
			<rect x="109.7" class="st1" width="17.4" height="27.9"/>
			<rect x="109.7" y="29.6" class="st1" width="17.4" height="27.9"/>
		</g>
		<g>
			<path class="st1" d="M99.7,27.9c-1.8-2.4-4.1-4.4-6.8-5.7c3.2-2.2,5.2-5.9,5.2-10C98.1,5.5,92.6,0,85.9,0h-4.1v27.9H99.7z"/>
			<path class="st1" d="M81.8,29.6v27.9h2.9c10.3,0,18.3-8.3,18.3-18.6c0-3.4-0.6-6.6-2.2-9.3H81.8z"/>
			<rect x="62.7" class="st1" width="17.4" height="27.9"/>
			<rect x="62.7" y="29.6" class="st1" width="17.4" height="27.9"/>
		</g>
	</g>
</g>
<g id="Schutzzone">
</g>
</svg>
