<?xml version="1.0" encoding="utf-8"?>
<!-- Generator: Adobe Illustrator 27.8.1, SVG Export Plug-In . SVG Version: 6.00 Build 0)  -->
<svg version="1.1" id="Logo" xmlns="http://www.w3.org/2000/svg" xmlns:xlink="http://www.w3.org/1999/xlink" x="0px" y="0px"
	 viewBox="0 0 150 45.5" style="enable-background:new 0 0 150 45.5;" xml:space="preserve">
<style type="text/css">
	.st0{fill:#50B848;}
	.st1{fill:#10A3C8;}
	.st2{fill:#3E3935;}
</style>
<g>
	<g>
		<path class="st0" d="M5.8,10.5c0.7-0.4,1.1-0.6,1.4-2l1.3-4.9c0-0.2,0.2-0.4,0.5-0.4c0.2,0,0.6,0.2,0.6,0.4l1.1,6
			c0.2,0.6,0.6,0.9,1.1,0.9c0.5,0,0.9-0.3,1.1-0.9l1.1-6c0-0.2,0.4-0.4,0.6-0.4c0.3,0,0.5,0.2,0.5,0.4l1.3,4.9
			c0.3,1.4,0.7,1.7,1.4,2c1,0.5,3.9,0.5,5.6,0.5C23,4.9,17.9,0,11.7,0C5.5,0,0.4,4.9,0,11C1.8,11,4.8,11,5.8,10.5z"/>
		<path class="st1" d="M17.8,13c-0.7,0.4-1.1,0.6-1.4,2l-1.2,4.9c0,0.2-0.3,0.4-0.6,0.4c-0.2,0-0.6-0.2-0.6-0.4l-1.1-6
			c-0.2-0.7-0.6-0.9-1.1-0.9c-0.5,0-0.9,0.3-1.1,0.9l-1.1,6c0,0.2-0.4,0.4-0.6,0.4c-0.3,0-0.6-0.2-0.6-0.4L7.2,15
			c-0.3-1.4-0.7-1.7-1.4-2c-0.9-0.5-3.9-0.5-5.8-0.5c0.4,6.1,5.5,11,11.7,11c6.2,0,11.3-4.8,11.7-10.9C21.7,12.5,18.8,12.4,17.8,13z
			"/>
	</g>
	<g>
		<path class="st2" d="M39.7,1.6C44,1.6,46,4.1,46,7.4c0,2.3-1,3.7-2.5,4.4c1.6,0.7,2.5,2.2,2.5,4.4c0,3.2-2.1,5.7-6.3,5.7H31V1.6
			H39.7z M39.6,6.5h-3.6v2.8h3.6c1,0,1.6-0.5,1.6-1.4C41.1,7.1,40.6,6.5,39.6,6.5z M39.5,14.2h-3.6V17h3.6c1.1,0,1.5-0.6,1.5-1.3
			C41.1,14.7,40.5,14.2,39.5,14.2z"/>
		<path class="st2" d="M57.4,1.6c2.8,0,5.4,0.8,7.4,2.7l-2.4,4.5c-1.5-1.6-3.1-2.3-5-2.3c-3.1,0-5.3,2.1-5.3,5.2s2.2,5.2,5.2,5.2
			c1.8,0,3.7-0.6,5.4-2.6l2.5,4.5c-2.1,1.9-4.7,3-7.8,3c-5.9,0-10.2-4.4-10.2-10.2C47.2,5.9,51.6,1.6,57.4,1.6z"/>
		<path class="st2" d="M88.2,1.6v20.3h-4.9v-7.7H76v7.7h-4.9V1.6H76v7.7h7.3V1.6H88.2z"/>
		<path class="st2" d="M92.6,26.5l3-6.7L89.4,7.4h5.4l3.1,6.9l3-6.9h4.9l-8.5,19H92.6z"/>
		<path class="st2" d="M121,1.6v20.3h-4.6v-2c-1,1.5-2.7,2.3-4.7,2.3c-3.3,0-6.3-2.5-6.3-7.6s3-7.6,6.3-7.6c2.2,0,3.9,1.1,4.7,2.4
			V1.6H121z M110.1,14.7c0,1.9,1.5,3,3.2,3c1.7,0,3.2-1.1,3.2-3c0-1.9-1.5-3-3.2-3C111.6,11.6,110.1,12.7,110.1,14.7z"/>
		<path class="st2" d="M132.1,7.1c0.6,0,1,0.1,1.4,0.2v5c-0.5-0.2-1.2-0.3-1.9-0.3c-2.1,0-3.3,1-3.3,3.5v6.4h-4.6V7.4h4.5v2.5
			C128.9,8.2,130.1,7.1,132.1,7.1z"/>
		<path class="st2" d="M142.1,7.1c4.5,0,7.9,3,7.9,7.6c0,4.6-3.4,7.6-7.9,7.6s-7.9-3-7.9-7.6C134.2,10,137.6,7.1,142.1,7.1z
			 M142.1,11.6c-1.7,0-3.2,1.1-3.2,3c0,1.9,1.5,3,3.2,3c1.7,0,3.2-1.1,3.2-3C145.3,12.7,143.8,11.6,142.1,11.6z"/>
	</g>
	<g>
		<path class="st2" d="M36,31.3c2.7,0,4.7,2,4.7,4.7s-2,4.7-4.7,4.7h-3.2v4.6H31v-14H36z M36,33.1h-3.2v5.8H36
			c1.6,0,2.9-1.2,2.9-2.9C38.9,34.3,37.6,33.1,36,33.1z"/>
		<path class="st2" d="M47.2,35c3,0,5.2,2.2,5.2,5.2c0,3-2.2,5.2-5.2,5.2S42,43.3,42,40.3C42,37.3,44.2,35,47.2,35z M47.2,36.7
			c-2.1,0-3.5,1.5-3.5,3.6c0,2.1,1.4,3.6,3.5,3.6c2.1,0,3.5-1.5,3.5-3.6C50.7,38.2,49.3,36.7,47.2,36.7z"/>
		<path class="st2" d="M57.3,45.3l-4.1-10h2l2.8,7.4l3-7.4h1.2l3,7.4l2.8-7.4h2l-4.1,10h-1.3l-3-7.2l-3,7.2H57.3z"/>
		<path class="st2" d="M75.8,35c3.1,0,4.8,2.3,4.8,5.2v0.5h-8v0c0.1,2,1.6,3.1,3.3,3.1c1.5,0,2.5-0.7,3.2-1.5l0.9,1.3
			c-0.8,0.9-2.1,1.8-4,1.8c-3,0-5.1-2-5.1-5.2C70.9,37.4,72.8,35,75.8,35z M75.9,36.6c-1.9,0-2.9,1.1-3.1,2.8h6
			C78.6,37.8,77.7,36.6,75.9,36.6z"/>
		<path class="st2" d="M87.6,35c0.3,0,0.7,0,1,0.1V37c-0.3-0.1-0.6-0.1-1-0.1c-2.2,0-2.9,1.5-2.9,3.8v4.7h-1.7v-10h1.7v1.5
			C85.2,35.7,86.2,35,87.6,35z"/>
		<path class="st2" d="M99.9,35c2,0,3.2,0.8,4,2.2l-1.4,0.9c-0.4-0.8-1.2-1.5-2.6-1.5c-1.1,0-2,0.5-2,1.3c0,0.9,1,1.2,2.4,1.5
			c1.7,0.4,3.6,0.7,3.6,3c0,2.1-1.7,3.1-3.8,3.1c-1.9,0-3.6-0.7-4.4-2.3l1.4-0.9c0.6,1.2,1.8,1.6,3,1.6c1.3,0,2.1-0.4,2.1-1.4
			c0-1-0.9-1.2-2.2-1.5c-1.6-0.3-3.8-0.8-3.8-3C96.1,36.2,97.5,35,99.9,35z"/>
		<path class="st2" d="M118.1,35c2.8,0,3.9,1.8,3.9,4.5v5.8h-1.7v-6c0-1.7-0.8-2.7-2.3-2.7c-2.3,0-3,1.7-3,4v4.7h-1.7v-6
			c0-1.7-0.8-2.7-2.4-2.7c-2.3,0-2.9,1.8-2.9,4v4.7h-1.7v-10h1.7v1.4c0.6-1,1.7-1.6,3.2-1.6c1.7,0,2.7,0.8,3.3,2
			C115.2,35.8,116.2,35,118.1,35z"/>
		<path class="st2" d="M128.5,35c2.8,0,4,1.4,4,3.7v6.5h-1.7v-1.4c-0.7,1-1.8,1.6-3.3,1.6c-2.2,0-3.4-1.3-3.4-3.1
			c0-1.9,1.4-2.9,3.2-3.1l2.8-0.3c0.5,0,0.6-0.2,0.6-0.5v-0.3c0-1-0.7-1.6-2.2-1.6c-1.4,0-2.4,0.6-2.6,1.8l-1.5-0.8
			C124.9,36.1,126.1,35,128.5,35z M130.8,40.5l-3.3,0.4c-1.1,0.1-1.6,0.8-1.6,1.5c0,0.9,0.6,1.5,1.9,1.5c1.9,0,3-1.4,3-2.6V40.5z"/>
		<path class="st2" d="M140.1,35c0.3,0,0.7,0,1,0.1V37c-0.3-0.1-0.6-0.1-1-0.1c-2.2,0-2.9,1.5-2.9,3.8v4.7h-1.7v-10h1.7v1.5
			C137.7,35.7,138.7,35,140.1,35z"/>
		<path class="st2" d="M147.3,45.4c-1.8,0-2.8-0.8-2.8-2.9v-5.7h-2v-1.5h2v-2.7h1.7v2.7h2.7v1.5h-2.7v5.8c0,0.8,0.3,1.2,1.1,1.2
			c0.6,0,1.1-0.1,1.6-0.2v1.5C148.5,45.3,148,45.4,147.3,45.4z"/>
	</g>
</g>
</svg>
