<?xml version="1.0" encoding="utf-8"?>
<!-- Generator: Adobe Illustrator 27.5.0, SVG Export Plug-In . SVG Version: 6.00 Build 0)  -->
<svg version="1.1" id="Layer_1" xmlns="http://www.w3.org/2000/svg" xmlns:xlink="http://www.w3.org/1999/xlink" x="0px" y="0px"
	 viewBox="0 0 350 116.5" style="enable-background:new 0 0 350 116.5;" xml:space="preserve">
<style type="text/css">
	.st0{fill:#FFFFFF;}
	.st1{fill:#FF0000;}
</style>
<path class="st0" d="M63.3,59.2h-8.7c0,0-0.1,0-0.1,0.1l-0.1,28.2v0.4l10.4-26.5c0.2-0.6,0.1-1.3-0.4-1.8
	C64.2,59.3,63.7,59.2,63.3,59.2"/>
<path class="st0" d="M129.9,40.4c-0.1-0.2-0.3-0.4-0.6-0.4h-17.8c-0.4,0-0.7,0.3-0.7,0.7v26.4c0,0.2,0.2,0.5,0.5,0.5h18.4
	c0.2,0,0.3-0.1,0.3-0.3v-7.1c0-0.2-0.1-0.3-0.3-0.3h-10.3c-0.2,0-0.4-0.2-0.4-0.4v-1.9c0-0.2,0.2-0.4,0.4-0.4h10.2
	c0.2,0,0.4-0.2,0.4-0.4v-5.8c0-0.2-0.1-0.3-0.3-0.3H119c-0.1,0-0.1-0.1-0.1-0.1v-2.2c0-0.2,0.2-0.4,0.4-0.4h10.4
	c0.2,0,0.3-0.1,0.3-0.3v-7.1C129.9,40.5,129.9,40.4,129.9,40.4L129.9,40.4"/>
<path class="st0" d="M140.1,48.7c0,0,0-0.1,0.1-0.1l0,0c2.7,0.2,4.7,2.5,4.7,5.2s-2,4.9-4.7,5.2c-0.1,0-0.1,0-0.1-0.1L140.1,48.7
	L140.1,48.7z M152.7,54c0-0.1,0-0.2,0-0.3c0-0.1,0-0.2,0-0.3c0,0,0-0.1,0-0.2c0-0.1,0-0.2,0-0.4c0-0.1,0-0.2,0-0.2
	c0-0.2,0-0.4-0.1-0.6c0-0.1,0-0.2,0-0.2c0-0.1,0-0.2-0.1-0.3c0-0.1,0-0.1,0-0.2c0-0.2-0.1-0.4-0.1-0.6c0,0,0-0.1,0-0.1
	c-0.6-2.5-1.8-4.8-3.7-6.6c-2.6-2.6-6.1-4-9.8-4h-6.2c-0.3,0-0.6,0.3-0.6,0.6v26.4c0,0.3,0.3,0.6,0.6,0.6h6.2c3.7,0,7.2-1.4,9.8-4
	c2.5-2.5,3.9-5.8,4-9.4C152.7,54.1,152.7,54.1,152.7,54"/>
<path class="st0" d="M41.2,40.6C41.2,40.6,41.2,40.6,41.2,40.6c0-0.1,0-0.1,0-0.1C41,40.2,40.7,40,40.4,40h-7.5
	c-0.2,0-0.3,0.2-0.3,0.3v9.2c0,0.2-0.1,0.3-0.3,0.3h-2.1c-0.1,0-0.2-0.1-0.3-0.2l0,0c0,0,0,0,0,0c0,0,0,0,0,0c0,0,0,0,0,0v-8.7
	c0-0.5-0.4-0.8-0.8-0.8h-7.4c-0.2,0-0.3,0.2-0.3,0.3v26.5c0,0.4,0.3,0.7,0.7,0.7h7.6c0.2,0,0.3-0.1,0.3-0.3v-9
	c0-0.3,0.2-0.5,0.5-0.5h1.9c0.2,0,0.3,0.1,0.3,0.3v9.2c0,0.2,0.1,0.3,0.3,0.3h8c0.2,0,0.3-0.1,0.3-0.3V40.8
	C41.2,40.8,41.2,40.7,41.2,40.6C41.2,40.7,41.2,40.7,41.2,40.6"/>
<path class="st0" d="M18.6,40.5c-1.3-0.4-2.7-0.6-4.1-0.6C6.5,40,0,46.1,0,53.8s6.5,13.8,14.6,13.8c1.4,0,2.8-0.2,4.1-0.6
	c0.2-0.1,0.4-0.3,0.4-0.5v-8.2c0-0.2-0.1-0.3-0.3-0.3c-0.1,0-0.1,0-0.2,0.1c-1.1,0.9-2.5,1.4-3.9,1.4c-2.9,0-5.3-1.9-5.9-4.5
	c0,0,0,0,0,0c0-0.1,0-0.2,0-0.2c0,0,0,0,0-0.1c0-0.1,0-0.2,0-0.2c0,0,0,0,0,0c0-0.2,0-0.4,0-0.6c0-3.1,2.7-5.7,6-5.7
	c1.5,0,2.8,0.5,3.9,1.4c0.1,0,0.1,0.1,0.2,0.1c0.2,0,0.3-0.2,0.3-0.3V41C19,40.8,18.9,40.6,18.6,40.5"/>
<path class="st0" d="M75.1,53.7v-5.1h0.2c1.4,0,2.6,1.1,2.6,2.5s-1.1,2.5-2.6,2.5H75.1z M83.9,57.3c-0.1-0.1-0.1-0.2-0.1-0.2
	c0-0.1,0.1-0.2,0.1-0.2c2.1-1.9,3.1-5.3,2.5-8.3c-1.2-5.9-4.9-8.6-12-8.6h-7.1c-0.4,0-0.8,0.3-0.8,0.8v26.2c0,0.3,0.3,0.6,0.6,0.6
	h7.6c0.2,0,0.4-0.2,0.4-0.4v-5.8h0.1c0.1,0,0.2,0,0.3,0c0.7,0,1.2,0.5,1.5,0.8l4.3,5c0.2,0.3,0.5,0.4,0.9,0.4h10
	c0.1,0,0.3-0.1,0.3-0.2c0.1-0.1,0-0.3-0.1-0.4C90.5,64.8,85.8,59.4,83.9,57.3"/>
<path class="st1" d="M43.6,67.1c0.3,0.3,0.7,0.4,1.1,0.4H53c0.1,0,0.2-0.1,0.2-0.2L53.2,40v-0.4l-10,25.8C43,66,43.1,66.7,43.6,67.1
	"/>
<path class="st0" d="M108.2,41c-0.3-0.1-0.6-0.3-1-0.4l0,0l0,0c-0.1,0-0.1,0-0.2-0.1c-1.2-0.3-2.4-0.5-3.7-0.5c-0.1,0-0.3,0-0.4,0
	c-2.7,0-5.3,0.7-7.5,2c-4.4,2.5-7,6.9-7,11.8s2.6,9.3,7,11.8c0.5,0.3,1,0.6,1.6,0.8c0.2,0.1,0.4,0.2,0.7,0.3c1.7,0.6,3.5,1,5.3,1
	c0.1,0,0.3,0,0.4,0c1.2,0,2.5-0.2,3.7-0.6c0.1,0,0.1,0,0.2-0.1l0,0l0,0c0.4-0.1,0.7-0.2,1-0.4c0.2-0.1,0.3-0.3,0.3-0.5V53.9
	c0-0.3-0.2-0.5-0.5-0.5h-6c-0.8,0-1.4,0.7-1.4,1.5v3.8c0,0.1-0.1,0.2-0.2,0.2c0,0-0.1,0-0.1,0c-2.1-1-3.3-2.9-3.3-5v0
	c0-3.1,2.7-5.5,6-5.7c0.1,0,0.2,0,0.2,0c1.7,0,3.7,0.7,4.8,1.8c0.1,0.1,0.1,0.1,0.2,0.1c0.2,0,0.3-0.2,0.3-0.3v-8.1
	C108.5,41.3,108.4,41.1,108.2,41"/>
<path class="st0" d="M62.9,38.5l17,0.1c0.1,0,0.3-0.1,0.3-0.3v-7c0-0.5-0.4-0.8-0.9-0.8h-7.8c-0.1,0-0.2-0.1-0.2-0.2V11.5
	c0-0.3-0.2-0.6-0.6-0.6l-7.8,0c-0.2,0-0.4,0.2-0.4,0.4v26.9C62.5,38.3,62.7,38.5,62.9,38.5"/>
<path class="st0" d="M81.7,24.6c0.4,0.6,0.6,1.3,0.6,2v11.6c0,0.2,0.2,0.3,0.3,0.3h7.8c0.2,0,0.3-0.2,0.3-0.3V26.7
	c0-0.7,0.2-1.4,0.6-2l7.9-13.4c0.1-0.1,0.1-0.2,0-0.3c-0.1-0.1-0.2-0.1-0.3-0.1h-8.3c-0.2,0-0.5,0.1-0.6,0.3l-3.4,6.1l-3.6-6.1
	c-0.1-0.2-0.3-0.3-0.5-0.3l-8.7,0c-0.1,0-0.2,0.1-0.3,0.1c-0.1,0.1-0.1,0.2,0,0.3L81.7,24.6L81.7,24.6z"/>
<path class="st0" d="M30.7,38.6L30.7,38.6c5.5,0,9.9-4.3,9.9-9.5V11.3c0-0.2-0.2-0.4-0.4-0.4l-7.7,0c-0.2,0-0.4,0.2-0.4,0.4v17.3
	c0,0.1,0,0.2,0,0.3c-0.2,0.7-0.8,0.9-1.3,0.9c-0.4,0-1-0.2-1.2-0.8c0,0,0,0,0,0c0,0,0-0.1,0-0.1c0-0.1,0-0.2,0-0.3V11.3
	c0-0.2-0.2-0.4-0.4-0.4l-7.7,0c-0.2,0-0.4,0.2-0.4,0.4v18C21,34.4,25.4,38.6,30.7,38.6"/>
<path class="st0" d="M60.1,38.6c0.2,0,0.3-0.2,0.3-0.3v-7c0-0.5-0.4-0.8-0.9-0.8h-7.8c-0.1,0-0.2-0.1-0.2-0.2V11.5
	c0-0.3-0.2-0.6-0.6-0.6l-7.8,0c-0.2,0-0.4,0.2-0.4,0.4v26.9c0,0.2,0.2,0.4,0.4,0.4L60.1,38.6L60.1,38.6z"/>
<path class="st0" d="M8.3,29.6c0-0.2,0.2-0.4,0.4-0.4h9.4c0.4,0,0.8-0.4,0.8-0.8v-6.3c0-0.2-0.2-0.4-0.4-0.4h-10
	c-0.1,0-0.2-0.1-0.2-0.2v-2.2c0-0.1,0.1-0.2,0.2-0.2h9.6c0.4,0,0.7-0.3,0.7-0.7v-7.1c0-0.2-0.2-0.4-0.4-0.4H1.1
	c-0.6,0-1.1,0.5-1.1,1.1v26.5h8.3L8.3,29.6L8.3,29.6z"/>
<path class="st0" d="M164.9,65.3h34.3V49.5h-18.5V9.4h-15.8L164.9,65.3L164.9,65.3z M201.4,67.6h-38.8V7.1h20.3v40.1h18.5V67.6
	L201.4,67.6z"/>
<path class="st0" d="M210.1,65.3h15.9v-56h-15.9V65.3L210.1,65.3z M228.2,67.6h-20.4V7.1h20.4V67.6L228.2,67.6z"/>
<path class="st0" d="M257.2,65.3h18.9l21-55.9h-16.9l-13.6,36l-13.5-36h-16.9L257.2,65.3z M277.7,67.6h-22L233,7.2h21.7l12,31.8
	l12-31.8h21.7L277.7,67.6z"/>
<path class="st0" d="M307.9,65.3h39.9V51.1h-24v-8h23.5V30.8h-23.5V23h23.9V9.4h-39.8L307.9,65.3L307.9,65.3z M350,67.6h-44.4V7.1
	h44.3v18.2H326v3.2h23.5v16.9H326v3.5h24L350,67.6L350,67.6z"/>
<path class="st0" d="M3.9,6.3L2.8,4.7H1.5v1.7H0.2V0.4h2.6c1.6,0,2.6,0.8,2.6,2.2c0,0.9-0.4,1.5-1.2,1.9l1.3,1.9L3.9,6.3L3.9,6.3z
	 M2.6,1.5H1.5v2.1h1.1c0.8,0,1.3-0.4,1.3-1S3.5,1.5,2.6,1.5L2.6,1.5z"/>
<path class="st0" d="M6,3.4c0-1.8,1.4-3.1,3.2-3.1s3.2,1.3,3.2,3.1s-1.4,3.1-3.2,3.1S6,5.2,6,3.4z M11.1,3.4c0-1.1-0.8-1.9-1.9-1.9
	S7.4,2.3,7.4,3.4s0.8,1.9,1.8,1.9S11.1,4.5,11.1,3.4z"/>
<path class="st0" d="M19,4.7c0,1-0.8,1.6-2.4,1.6h-3.1V0.4h2.9c1.5,0,2.2,0.6,2.2,1.5c0,0.6-0.3,1-0.8,1.3C18.5,3.5,18.9,4,19,4.7
	L19,4.7z M14.9,1.5v1.4h1.4c0.7,0,1-0.2,1-0.7s-0.4-0.7-1-0.7L14.9,1.5L14.9,1.5z M17.6,4.6c0-0.5-0.4-0.7-1.1-0.7h-1.6v1.5h1.6
	C17.2,5.3,17.6,5.1,17.6,4.6z"/>
<path class="st0" d="M24.6,5.2v1.1H20V0.4h4.5v1.1h-3.1v1.3h2.8v1.1h-2.8v1.4H24.6z"/>
<path class="st0" d="M29.4,6.3l-1.1-1.7H27v1.7h-1.4V0.4h2.6c1.6,0,2.6,0.8,2.6,2.2c0,0.9-0.5,1.5-1.2,1.9l1.3,1.9L29.4,6.3
	L29.4,6.3z M28.2,1.5H27v2.1h1.1c0.8,0,1.3-0.4,1.3-1S29,1.5,28.2,1.5L28.2,1.5z"/>
<path class="st0" d="M33.1,1.5h-1.9V0.4h5.2v1.1h-1.9v4.8h-1.4V1.5z"/>
<path class="st0" d="M39.5,0.4h1.4v4.8h3v1.1h-4.3V0.4z"/>
<path class="st0" d="M44.6,0.4H46v4.8h3v1.1h-4.3V0.4z"/>
<path class="st0" d="M54.3,5.2v1.1h-4.6V0.4h4.5v1.1h-3.1v1.3h2.8v1.1h-2.8v1.4H54.3z"/>
<path class="st0" d="M64.4,0.4l-1.9,5.9H61l-1.3-4l-1.3,4h-1.5l-2-5.9h1.4l1.3,4.2l1.4-4.2h1.3l1.3,4.2l1.4-4.2
	C63.1,0.4,64.4,0.4,64.4,0.4z"/>
<path class="st0" d="M69.5,5.2v1.1h-4.6V0.4h4.5v1.1h-3.1v1.3h2.8v1.1h-2.8v1.4H69.5z"/>
<path class="st0" d="M70.6,0.4H72v4.8h3v1.1h-4.3C70.6,6.3,70.6,0.4,70.6,0.4z"/>
<path class="st0" d="M75.7,0.4h1.4v4.8h3v1.1h-4.3C75.7,6.3,75.7,0.4,75.7,0.4z"/>
<path class="st0" d="M83.1,4.2v2.1h-1.4V4.2l-2.3-3.8h1.5l1.6,2.6L84,0.4h1.3L83.1,4.2L83.1,4.2z"/>
<path class="st0" d="M91.3,0.4v5.9h-1.1l-3-3.6v3.6h-1.3V0.4H87L90,4V0.4H91.3L91.3,0.4z"/>
<path class="st0" d="M94,0.8c0,0.2,0,0.4-0.2,0.9l-0.5,1.2h-0.8l0.4-1.3c-0.3-0.1-0.4-0.4-0.4-0.7c0-0.5,0.4-0.8,0.8-0.8
	S94,0.3,94,0.8L94,0.8z"/>
<path class="st0" d="M94.6,5.8l0.5-1c0.5,0.4,1.2,0.6,2,0.6c0.8,0,1.1-0.3,1.1-0.6c0-1.1-3.4-0.3-3.4-2.5c0-1,0.8-1.9,2.5-1.9
	c0.7,0,1.5,0.2,2.1,0.5l-0.4,1c-0.6-0.3-1.1-0.5-1.6-0.5c-0.8,0-1.1,0.3-1.1,0.7c0,1.1,3.4,0.3,3.4,2.5c0,1-0.8,1.8-2.5,1.8
	C96,6.5,95.1,6.2,94.6,5.8L94.6,5.8z"/>
<g>
	<path class="st1" d="M91.3,97.6c0-10.9,8.4-18.6,19.8-18.6c6.9,0,12.4,2.5,15.9,7.1l-7.5,6.8c-2.1-2.6-4.6-4.2-7.7-4.2
		c-5,0-8.3,3.5-8.3,8.9c0,5.4,3.3,8.9,8.3,8.9c3.2,0,5.7-1.5,7.7-4.2l7.5,6.8c-3.5,4.6-9,7.1-15.9,7.1
		C99.7,116.2,91.3,108.5,91.3,97.6z"/>
	<path class="st1" d="M153.7,109.2h-13.5l-2.4,6.2h-12.2l15.5-35.6h11.7l15.5,35.6h-12.4L153.7,109.2z M150.4,100.5l-3.4-9l-3.4,9
		H150.4z"/>
	<path class="st1" d="M204.4,79.8v35.6h-9.8l-13.5-16.2v16.2h-11.6V79.8h9.8l13.5,16.2V79.8H204.4z"/>
	<path class="st1" d="M233.4,109.2h-13.5l-2.4,6.2h-12.2l15.5-35.6h11.7l15.5,35.6h-12.4L233.4,109.2z M230.1,100.5l-3.4-9l-3.4,9
		H230.1z"/>
	<path class="st1" d="M250.5,79.8H268c11.9,0,20,6.8,20,17.8c0,11-8.2,17.8-20,17.8h-17.5V79.8z M267.5,106c5,0,8.5-3,8.5-8.4
		c0-5.4-3.4-8.4-8.5-8.4h-5V106H267.5z"/>
	<path class="st1" d="M312.2,109.2h-13.5l-2.4,6.2h-12.2l15.5-35.6h11.7l15.5,35.6h-12.4L312.2,109.2z M309,100.5l-3.4-9l-3.4,9H309
		z"/>
</g>
</svg>
