<?xml version="1.0" encoding="utf-8"?>
<!-- Generator: Adobe Illustrator 27.5.0, SVG Export Plug-In . SVG Version: 6.00 Build 0)  -->
<svg version="1.1" id="Layer_1" xmlns="http://www.w3.org/2000/svg" xmlns:xlink="http://www.w3.org/1999/xlink" x="0px" y="0px"
	 viewBox="0 0 580.8 370.1" style="enable-background:new 0 0 580.8 370.1;" xml:space="preserve">
<style type="text/css">
	.st0{fill:#FFFFFF;}
	.st1{fill:#FF0000;}
	.st2{fill:#FF1919;}
</style>
<path class="st0" d="M146,136.4h-20.1c-0.1,0-0.2,0.1-0.2,0.2l-0.2,65v0.9l24-61c0.6-1.4,0.2-3-0.9-4.1
	C147.9,136.7,147,136.4,146,136.4"/>
<path class="st0" d="M299.4,93c-0.2-0.6-0.7-1-1.3-1H257c-0.9,0-1.7,0.8-1.7,1.7v60.9c0,0.6,0.5,1.1,1.1,1.1h42.5
	c0.4,0,0.7-0.3,0.7-0.7v-16.3c0-0.4-0.3-0.8-0.8-0.8H275c-0.5,0-0.8-0.4-0.8-0.8v-4.5c0-0.5,0.4-0.8,0.8-0.8h23.6c0.5,0,1-0.4,1-1
	v-13.4c0-0.4-0.3-0.7-0.7-0.7h-24.3c-0.2,0-0.3-0.1-0.3-0.3v-5c0-0.5,0.4-0.8,0.8-0.8H299c0.4,0,0.6-0.3,0.6-0.6V93.5
	C299.4,93.3,299.4,93.2,299.4,93L299.4,93"/>
<path class="st0" d="M352.1,124.5c0-0.2,0-0.4,0-0.6c0-0.3,0-0.5,0-0.8c0-0.1,0-0.3,0-0.4c0-0.3,0-0.6,0-0.8c0-0.2,0-0.3,0-0.5
	c0-0.4-0.1-0.9-0.1-1.3c0-0.2,0-0.4-0.1-0.5c0-0.3-0.1-0.5-0.1-0.8c0-0.1,0-0.3-0.1-0.4c-0.1-0.5-0.2-1-0.3-1.5c0-0.1,0-0.2-0.1-0.3
	c-1.3-5.8-4.2-11-8.5-15.3c-6-6-14-9.2-22.5-9.2h-14.2c-0.8,0-1.4,0.6-1.4,1.4v60.7c0,0.8,0.6,1.4,1.4,1.4h14.2
	c8.5,0,16.5-3.3,22.5-9.2c5.8-5.8,9.1-13.4,9.3-21.6C352.1,124.7,352.1,124.6,352.1,124.5 M322.9,112.2c0-0.1,0.1-0.2,0.2-0.2l0,0
	c6.2,0.6,10.8,5.7,10.8,11.9s-4.7,11.3-10.9,11.9c-0.1,0-0.2-0.1-0.2-0.2v-23.4H322.9z"/>
<path class="st0" d="M94.9,93.6c0-0.1,0-0.1,0-0.2v-0.1C94.7,92.5,94,92,93.1,92H75.9c-0.4,0-0.8,0.3-0.8,0.8V114
	c0,0.4-0.3,0.7-0.7,0.7h-4.9c-0.3,0-0.5-0.2-0.6-0.4l0,0v-0.1v-0.1c0,0,0,0,0-0.1V94c0-1.1-0.9-1.9-1.9-1.9H49.8
	c-0.4,0-0.8,0.4-0.8,0.8V154c0,0.9,0.8,1.7,1.7,1.7h17.5c0.4,0,0.7-0.3,0.7-0.7v-20.7c0-0.6,0.5-1.1,1.1-1.1h4.4
	c0.4,0,0.6,0.3,0.6,0.6V155c0,0.4,0.3,0.7,0.7,0.7h18.4c0.4,0,0.7-0.3,0.7-0.7V94c0-0.1,0-0.1,0-0.2C94.9,93.7,94.9,93.7,94.9,93.6"
	/>
<path class="st0" d="M43,93.4c-3.1-0.8-6.2-1.3-9.4-1.3C15.1,92.1,0,106.3,0,123.9c0,17.5,15,31.8,33.5,31.8c3.2,0,6.4-0.4,9.4-1.3
	c0.5-0.1,0.9-0.6,0.9-1.2v-18.8c0-0.4-0.3-0.8-0.8-0.8c-0.2,0-0.3,0.1-0.5,0.2c-2.5,2.1-5.7,3.2-9.1,3.2c-6.7,0-12.2-4.5-13.5-10.4
	v-0.1c0-0.2-0.1-0.4-0.1-0.5v-0.1c0-0.2-0.1-0.4-0.1-0.6c0,0,0,0,0-0.1c0-0.4-0.1-0.9-0.1-1.3c0-7.2,6.2-13.1,13.8-13.1
	c3.3,0,6.6,1.1,9.1,3.2c0.1,0.1,0.3,0.2,0.5,0.2c0.4,0,0.8-0.3,0.8-0.8V94.5C43.9,94,43.5,93.5,43,93.4"/>
<path class="st0" d="M193.4,132.1c-0.1-0.2-0.2-0.4-0.2-0.6c0-0.2,0.1-0.4,0.3-0.6c4.8-4.3,7.1-12.2,5.7-19.1
	C196.3,98.1,187.8,92,171.5,92h-16.4c-1,0-1.8,0.8-1.8,1.8v60.3c0,0.8,0.7,1.5,1.5,1.5h17.5c0.5,0,0.9-0.4,0.9-0.9v-13.4h0.1
	c0.2-0.1,0.5-0.1,0.7-0.1c1.5,0,2.7,1,3.4,1.9l10,11.6c0.5,0.6,1.2,0.9,2,0.9h23c0.3,0,0.6-0.2,0.7-0.5c0.1-0.3,0.1-0.6-0.1-0.8
	C208.6,149.3,197.8,137,193.4,132.1 M173.1,123.7v-11.8h0.3c3.2,0,5.9,2.6,5.9,5.9s-2.6,5.9-5.9,5.9H173.1z"/>
<path class="st1" d="M100.6,154.7c0.7,0.6,1.6,1,2.6,1h19c0.2,0,0.3-0.2,0.3-0.3l0.2-63.2v-0.9l-23.1,59.3
	C99.1,152,99.4,153.6,100.6,154.7"/>
<path class="st0" d="M249.4,94.4c-0.6-0.3-1.4-0.6-2.3-0.9l0,0l0,0c-0.1-0.1-0.2-0.1-0.3-0.2c-2.7-0.8-5.6-1.2-8.5-1.3
	c-0.3,0-0.6,0-1,0c-6.1,0-12.2,1.6-17.4,4.6c-10.1,5.8-16.1,16-16.1,27.2s6,21.4,16.1,27.2c1.2,0.7,2.4,1.3,3.6,1.8
	c0.5,0.2,1,0.4,1.5,0.6c3.9,1.5,8,2.2,12.3,2.2c0.3,0,0.6,0,1,0c2.9-0.1,5.7-0.5,8.5-1.3c0.1,0,0.2-0.1,0.3-0.2l0,0l0,0
	c0.9-0.3,1.6-0.6,2.3-0.9c0.5-0.2,0.8-0.7,0.8-1.2v-28c0-0.7-0.5-1.2-1.2-1.2h-13.8c-1.8,0-3.4,1.5-3.4,3.4v8.7
	c0,0.3-0.2,0.5-0.5,0.5c-0.1,0-0.1,0-0.2,0c-4.7-2.2-7.7-6.7-7.7-11.6v-0.1c0-7.1,6.1-12.8,13.9-13.1c0.2,0,0.3,0,0.5,0
	c4,0,8.4,1.7,11.1,4.2c0.1,0.1,0.3,0.2,0.5,0.2c0.4,0,0.8-0.3,0.8-0.8V95.6C250.1,95.1,249.8,94.6,249.4,94.4"/>
<path class="st0" d="M145,88.7l39.3,0.2c0.3,0,0.6-0.3,0.6-0.6V72c0-1.1-0.9-1.9-2-1.9h-18c-0.3,0-0.6-0.2-0.6-0.6V26.4
	c0-0.7-0.6-1.3-1.3-1.3h-18c-0.5,0-0.9,0.4-0.9,0.9v61.9C144.1,88.3,144.5,88.7,145,88.7"/>
<path class="st0" d="M184.3,88.9"/>
<path class="st0" d="M188.4,56.8c0.9,1.4,1.4,3,1.4,4.6v26.7c0,0.4,0.3,0.8,0.8,0.8h18c0.4,0,0.8-0.3,0.8-0.8V61.6
	c0-1.7,0.5-3.3,1.5-4.7L229,26.1c0.1-0.2,0.1-0.5,0-0.7s-0.3-0.3-0.6-0.3h-19.1c-0.6,0-1.1,0.3-1.4,0.8l-7.9,14l-8.3-14.1
	c-0.3-0.4-0.7-0.7-1.2-0.7l-20-0.1c-0.3,0-0.5,0.1-0.6,0.4c-0.1,0.2-0.1,0.5,0,0.7L188.4,56.8z"/>
<path class="st0" d="M70.8,88.9L70.8,88.9c12.6,0,22.8-9.8,22.8-21.9V26c0-0.5-0.4-0.9-0.9-0.9L74.9,25c-0.5,0-0.9,0.4-0.9,0.9v39.8
	c0,0.2,0,0.6-0.1,0.7c-0.4,1.5-1.8,2.1-2.9,2.1c-1,0-2.3-0.5-2.8-1.8c0,0,0,0,0-0.1s-0.1-0.1-0.1-0.2c0-0.2-0.1-0.5-0.1-0.7V26
	c0-0.5-0.4-0.9-0.9-0.9L49.3,25c-0.5,0-0.9,0.4-0.9,0.9v41.5C48.5,79.3,58.5,88.9,70.8,88.9"/>
<path class="st0" d="M138.6,88.9c0.4,0,0.8-0.4,0.8-0.8V72c0-1.1-0.9-1.9-2-1.9h-18c-0.3,0-0.6-0.3-0.6-0.6V26.4
	c0-0.7-0.6-1.3-1.3-1.3l-18-0.1c-0.5,0-0.9,0.4-0.9,0.9v62c0,0.5,0.4,0.9,0.9,0.9L138.6,88.9z"/>
<path class="st0" d="M19.2,68.1c0-0.5,0.4-0.9,0.9-0.9h21.6c1,0,1.8-0.8,1.8-1.8V50.8c0-0.5-0.4-0.8-0.8-0.8h-23
	c-0.3,0-0.5-0.2-0.5-0.5v-5c0-0.3,0.2-0.5,0.5-0.5H42c0.9,0,1.6-0.7,1.6-1.6V26c0-0.5-0.4-0.8-0.8-0.8h-40c-1.4,0-2.6,1.2-2.6,2.6
	v61h19.1L19.2,68.1z"/>
<path class="st0" d="M138.6,88.9"/>
<g>
	<g>
		<path class="st0" d="M210.3,264.1h-57v-88.8H183v58.9h27.2v29.9H210.3z M156.5,260.8h50.4v-23.3h-27.2v-58.9h-23.2V260.8z"/>
	</g>
	<g>
		<path class="st0" d="M249.6,264.1h-29.9v-88.8h29.9V264.1z M222.9,260.8h23.3v-82.2h-23.3V260.8z"/>
	</g>
	<g>
		<path class="st0" d="M322.3,264.1H290l-33.3-88.7h31.9l17.6,46.7l17.7-46.7h31.9L322.3,264.1z M292.2,260.8H320l30.9-82h-24.8
			l-20,52.8l-19.9-52.8h-24.8L292.2,260.8z"/>
	</g>
	<g>
		<path class="st0" d="M428.4,264.1h-65.1v-88.8h65V202h-35.1v4.7h34.5v24.7h-34.5v5.2h35.2V264.1z M366.6,260.8h58.5V240h-35.2
			v-11.8h34.5V210h-34.5v-11.3H425v-20.1h-58.4V260.8z"/>
	</g>
</g>
<g>
	<path class="st0" d="M143.7,222H2c-1.1,0-2-0.9-2-2s0.9-2,2-2h141.7c1.1,0,2,0.9,2,2C145.6,221.1,144.8,222,143.7,222z"/>
</g>
<g>
	<path class="st0" d="M578.8,222H437.1c-1.1,0-2-0.9-2-2s0.9-2,2-2h141.7c1.1,0,2,0.9,2,2S579.9,222,578.8,222z"/>
</g>
<g>
	<path class="st0" d="M9.1,14.6l-2.6-3.8H6.3H3.6v3.8H0.4V1h5.9c3.6,0,5.9,1.9,5.9,5c0,2-1,3.5-2.8,4.3l3.1,4.4H9.1V14.6z M6.1,3.5
		H3.6v4.8h2.6C8.1,8.3,9,7.4,9,5.9S8.1,3.5,6.1,3.5z"/>
	<path class="st0" d="M13.9,7.8c0-4.1,3.2-7.1,7.5-7.1s7.5,3,7.5,7.1s-3.2,7.1-7.5,7.1C17,14.9,13.9,11.9,13.9,7.8z M25.6,7.8
		c0-2.6-1.8-4.4-4.3-4.4S17,5.2,17,7.8s1.8,4.4,4.3,4.4S25.6,10.4,25.6,7.8z"/>
	<path class="st0" d="M43.7,10.9c0,2.4-1.9,3.7-5.5,3.7h-7.1V1h6.7C41.3,1,43,2.4,43,4.5c0,1.4-0.7,2.4-1.8,3
		C42.7,8,43.7,9.2,43.7,10.9z M34.3,3.4v3.2h3.1C39,6.6,39.8,6,39.8,5S39,3.4,37.5,3.4H34.3z M40.5,10.6c0-1.2-0.9-1.7-2.5-1.7h-3.7
		v3.4H38C39.7,12.2,40.5,11.7,40.5,10.6z"/>
	<path class="st0" d="M56.7,12.1v2.5H46.1V1h10.3v2.5h-7.2v3h6.3V9h-6.3v3.2L56.7,12.1L56.7,12.1z"/>
	<path class="st0" d="M67.9,14.6l-2.6-3.8h-0.2h-2.8v3.8h-3.2V1H65c3.6,0,5.9,1.9,5.9,5c0,2-1,3.5-2.8,4.3l3.1,4.4h-3.3V14.6z
		 M64.9,3.5h-2.6v4.8h2.6c1.9,0,2.9-0.9,2.9-2.4S66.9,3.5,64.9,3.5z"/>
	<path class="st0" d="M76.2,3.5h-4.4V1h11.9v2.6h-4.4v11.1h-3.2L76.2,3.5L76.2,3.5z"/>
	<path class="st0" d="M90.9,1h3.2v11.1h6.8v2.6h-10V1z"/>
	<path class="st0" d="M102.7,1h3.2v11.1h6.8v2.6h-10V1z"/>
	<path class="st0" d="M125,12.1v2.5h-10.6V1h10.3v2.5h-7.2v3h6.3V9h-6.3v3.2L125,12.1L125,12.1z"/>
	<path class="st0" d="M148,1l-4.5,13.7h-3.4l-3-9.2l-3.1,9.2h-3.4L126.2,1h3.3l3.1,9.6l3.2-9.6h2.9l3.1,9.7L145,1H148z"/>
	<path class="st0" d="M160.3,12.1v2.5h-10.6V1H160v2.5h-7.2v3h6.3V9h-6.3v3.2L160.3,12.1L160.3,12.1z"/>
	<path class="st0" d="M162.8,1h3.2v11.1h6.8v2.6h-10V1z"/>
	<path class="st0" d="M174.6,1h3.2v11.1h6.8v2.6h-10V1z"/>
	<path class="st0" d="M191.5,9.8v4.8h-3.2V9.8L183.1,1h3.4l3.6,6.1l3.6-6.1h3.1L191.5,9.8z"/>
	<path class="st0" d="M210.5,1v13.7h-2.6l-6.8-8.3v8.3H198V1h2.6l6.8,8.3V1H210.5z"/>
	<path class="st0" d="M216.6,1.9c0,0.5-0.1,0.9-0.5,2L215,6.6h-2l0.8-3.1c-0.6-0.3-1-0.9-1-1.7c0-1.1,0.8-1.9,1.9-1.9
		C215.8,0,216.6,0.8,216.6,1.9z"/>
	<path class="st0" d="M218,13.3l1.1-2.4c1.2,0.8,2.9,1.4,4.5,1.4c1.9,0,2.6-0.6,2.6-1.5c0-2.6-7.9-0.8-7.9-5.9
		c0-2.3,1.9-4.3,5.8-4.3c1.7,0,3.5,0.4,4.7,1.2l-1,2.4c-1.3-0.7-2.6-1.1-3.8-1.1c-1.9,0-2.6,0.7-2.6,1.6c0,2.5,7.9,0.8,7.9,5.8
		c0,2.3-1.9,4.2-5.8,4.2C221.4,14.9,219.2,14.2,218,13.3z"/>
</g>
<g>
	<path class="st2" d="M30.9,325.4c0-24.1,18.5-41,43.7-41c15.3,0,27.4,5.6,35.2,15.7L93.1,315c-4.6-5.8-10.1-9.2-17.1-9.2
		c-11,0-18.4,7.6-18.4,19.6S65,345,76,345c7.1,0,12.5-3.4,17.1-9.2l16.7,14.9c-7.7,10.1-19.8,15.7-35.2,15.7
		C49.4,366.4,30.9,349.5,30.9,325.4z"/>
	<path class="st2" d="M168.6,350.9h-29.8l-5.3,13.7h-26.9l34.3-78.4h26l34.3,78.4h-27.3L168.6,350.9z M161.3,331.9l-7.6-19.7
		l-7.6,19.7H161.3z"/>
	<path class="st2" d="M281.5,286.2v78.4h-21.7L230,329v35.6h-25.8v-78.4H226l29.8,35.6v-35.6H281.5z"/>
	<path class="st2" d="M346.6,350.9h-29.8l-5.3,13.7h-26.9l34.3-78.4h26l34.3,78.4h-27.3L346.6,350.9z M339.3,331.9l-7.6-19.7
		l-7.6,19.7H339.3z"/>
	<path class="st2" d="M382.3,286.2H421c26.2,0,44.2,14.9,44.2,39.2c0,24.3-18,39.2-44.2,39.2h-38.6V286.2z M419.8,344
		c11.1,0,18.7-6.6,18.7-18.6s-7.6-18.6-18.7-18.6h-11.1V344H419.8z"/>
	<path class="st2" d="M521.5,350.9h-29.8l-5.3,13.7h-26.9l34.3-78.4h26l34.3,78.4h-27.3L521.5,350.9z M514.2,331.9l-7.6-19.7
		l-7.6,19.7H514.2z"/>
</g>
</svg>
