<?xml version="1.0" encoding="utf-8"?>
<!-- Generator: Adobe Illustrator 27.8.1, SVG Export Plug-In . SVG Version: 6.00 Build 0)  -->
<svg version="1.1" id="Logo" xmlns="http://www.w3.org/2000/svg" xmlns:xlink="http://www.w3.org/1999/xlink" x="0px" y="0px"
	 viewBox="0 0 150 32.7" style="enable-background:new 0 0 150 32.7;" xml:space="preserve">
<style type="text/css">
	.st0{fill-rule:evenodd;clip-rule:evenodd;}
</style>
<g id="Wordmark">
	<g id="Straight">
		<path class="st0" d="M150,6.1l-1.5,6h-3.8l-1.3,5.1c-0.4,1.5,0.4,1.9,1.1,1.9c1,0,2.1-0.7,2.6-1.1l-2.1,7.9
			c-1.5,1.1-3.8,1.7-5.7,1.7c-3.6,0-7.1-2.6-5.5-8.8l2.6-10.1L147.8,0l-1.6,6.1H150L150,6.1z"/>
		<path class="st0" d="M124.5,0.4h-9.2l-6.9,27h9.2l3.6-14c0.7-0.7,1.3-1,1.9-1c1.1,0,1.6,0.6,1.1,2.3l-3.3,12.6l8.8,0L133,14
			c1.3-5.2-0.6-8-4.5-8c-2.7,0-3.9,0.8-5,1.9c-0.3,0.3-1.2,1.3-0.9,0.2C122.9,6.8,124.5,0.4,124.5,0.4L124.5,0.4z"/>
		<polygon class="st0" points="88.9,6.1 79.4,6.1 73.9,27.4 83.4,27.4 88.9,6.1 		"/>
		<path class="st0" d="M50.1,6.1h-9.3l-5.4,21.2h9.3L47,18c0.7-2.6,2-4.2,2.3-3.5c0.5,1.1,1.9,1.8,3.3,1.7c2.6-0.2,4.6-2,5.4-5.2
			c0.8-3-0.3-5-2.7-5.2c-1.1-0.1-2.4,0-4.4,1.8c-0.5,0.2-1,1.6-1.5,1.1C49.3,9.2,50.1,6.1,50.1,6.1L50.1,6.1z"/>
		<path class="st0" d="M38.2,6.1h-3.8L35.9,0L24.6,8.6L22,18.7c-1.6,6.3,1.9,8.8,5.5,8.8c1.9,0,4.1-0.7,5.7-1.7l2.1-7.9
			c-0.5,0.4-1.5,1.1-2.6,1.1c-0.8,0-1.5-0.4-1.1-1.9l1.3-5.1h3.8L38.2,6.1L38.2,6.1z"/>
		<path class="st0" d="M0,25.3c2.8,1.5,6.5,2.4,9.5,2.4c4.4,0,8.9-2.3,10.1-7.1c0.4-1.6,0.3-3.1-0.3-4.2c-1.9-3.1-6.7-2-6.2-4.2
			c0.2-0.8,0.8-1.1,1.5-1.1c0.8,0,2.9,0.4,4.4,1.9l3.4-5.6c-1.9-1.2-4.7-1.8-7.8-1.8C9,5.6,5.1,8.1,4,12.3c-0.4,1.6-0.2,3,0.4,4.1
			c1.8,3,6.5,2,5.8,4.5c-0.2,0.9-1.5,1-2.3,0.9c-1.1-0.1-2.6-0.9-4.4-2.5L0,25.3L0,25.3z"/>
		<path class="st0" d="M63.3,21.9l0.5-2.2c0.1-0.4-0.8-0.7-1.3-0.7c-1.1,0-2.1,0.7-2.4,1.8c-0.3,1.2,0.3,1.9,1.5,1.9
			C62.2,22.7,63.2,22.2,63.3,21.9L63.3,21.9z M59.2,13.7L60.9,7c2.8-1.1,3.8-1.6,6.7-1.6c5.8,0,8.6,3.1,6.8,10.2l-3,11.7l-9.2,0
			l0.2-0.9c0.1-0.4,0.1-0.6-0.4-0.1c-1.4,1.2-3.2,1.2-4.6,1.2c-2.8,0-4.3-2.3-3.4-5.6c1.2-4.7,4.1-6.4,7.8-6.4
			c1.1,0,1.9,0.3,2.8,0.6c0.4,0.1,0.6-0.7,0.5-1c-0.2-1.1-0.8-1.7-2.3-1.9C62,13.2,60.2,13.2,59.2,13.7L59.2,13.7z"/>
		<path class="st0" d="M99.4,16.5c0,0,1-3.8,1.1-4.1c0.1-0.2-0.4-0.2-0.6-0.2c-1.6,0.1-2.9,0.7-3.3,2.4C96.2,16,96.7,17,98,17
			C98.5,17,99.2,16.8,99.4,16.5L99.4,16.5z M111.3,6.1l-4.2,16.5c-1.7,6.8-5.5,10-12.6,10.1c-3.8,0.1-7-1-9.3-2.7l2.2-8.5
			c1.7,2.2,3.3,2.6,5.9,2.8c1.9,0.2,4.3-0.6,5-2.4c0.2-0.5,0.3-1,0.1-1c-0.7,0-1,1.3-4.2,1.3c-4.5,0.1-6.6-3.1-5.3-8.1
			c0.9-3.6,3.5-5.8,4.8-6.5c2-1.2,4.1-1.4,8.5-1.4L111.3,6.1L111.3,6.1z"/>
	</g>
	<g id="The_Georgia">
		<path class="st0" d="M108.6,0.3L107.2,2l-1.5,1.7h1l0.6-0.7h1.3l-0.1,0.7h0.9l0.1-1.7l0.1-1.7H108.6z M108.7,2.4h-1L108,2l0.9-1.2
			L108.7,2L108.7,2.4z"/>
		<polygon class="st0" points="102,2.2 101.3,3.7 102.2,3.7 102.8,2.2 103.6,0.3 102.7,0.3 		"/>
		<path class="st0" d="M94.1,2.2L94.1,2.2C94.1,2.2,94.1,2.2,94.1,2.2c-0.2,0.8,0.2,1.6,1.9,1.6c0.4,0,1.1,0,1.3-0.1L98,2.2l0.1-0.2
			h-1.6l-0.1,0.2l-0.1,0.3H97l-0.3,0.6c-0.3,0-0.4,0.1-0.6,0.1c-0.7,0-1.2-0.3-1.1-0.9c0,0,0,0,0,0v0c0.2-0.8,1.2-1.3,2.4-1.3
			c0.4,0,0.7,0,1.1,0.1l0.3-0.6c-0.3-0.1-0.7-0.1-1.2-0.1C95.5,0.3,94.4,1.3,94.1,2.2z"/>
		<path class="st0" d="M89.6,0.3h-1.4l-0.8,1.8l-0.7,1.5h0.9l0.6-1.4h0.2c0.4,0,0.5,0.1,0.7,0.7l0.2,0.7h1l-0.4-1.1
			c-0.1-0.2-0.1-0.3-0.3-0.4c0.1,0,0.2,0,0.3-0.1h0c0.5-0.2,0.8-0.5,0.8-0.8C90.8,0.9,90.6,0.3,89.6,0.3z M88.8,0.9h0.4
			c0.4,0,0.6,0.2,0.6,0.4c-0.1,0.2-0.4,0.5-1,0.5h-0.4L88.8,0.9z"/>
		<path class="st0" d="M83.5,2.2c-0.4,1-1.5,1.6-2.7,1.6c-1.2,0-1.9-0.6-1.7-1.6c0,0,0,0,0,0l0,0c0.3-1.1,1.5-1.9,2.9-1.9
			c1.2,0,1.9,0.6,1.6,1.5C83.6,1.9,83.5,2.2,83.5,2.2z M82.6,2.2c0-0.1,0.1-0.2,0.1-0.3c0.1-0.6-0.2-1-0.9-1c-0.8,0-1.6,0.6-1.8,1.2
			c0,0,0,0,0,0v0c-0.1,0.6,0.2,1,0.9,1C81.6,3.1,82.3,2.7,82.6,2.2L82.6,2.2z"/>
		<polygon class="st0" points="72.6,2.2 72,3.7 75,3.7 75.2,3.1 73.1,3.1 73.5,2.2 75,2.2 75,2.2 75.2,1.7 73.7,1.7 74.1,0.9 
			75.7,0.9 76,0.3 73.4,0.3 		"/>
		<path class="st0" d="M64.8,2.2L64.8,2.2C64.8,2.2,64.8,2.2,64.8,2.2C64.6,3,65,3.8,66.8,3.8c0.4,0,1.1,0,1.3-0.1l0.6-1.5l0.1-0.2
			h-1.6l-0.1,0.2l-0.1,0.3h0.8l-0.3,0.6c-0.3,0-0.4,0.1-0.6,0.1c-0.7,0-1.2-0.3-1.1-0.9c0,0,0,0,0-0.1v0c0.2-0.8,1.2-1.3,2.4-1.3
			c0.4,0,0.7,0,1.1,0.1l0.3-0.6c-0.3-0.1-0.7-0.1-1.2-0.1C66.2,0.3,65.1,1.3,64.8,2.2z"/>
		<path class="st0" d="M60.9,1.3c-0.4,0-0.7,0.2-0.8,0.5c0,0.1,0,0.3,0.1,0.3h0c0.1,0.1,0.2,0.2,0.4,0.2c0.2,0,0.4-0.1,0.5-0.2v0
			c0.1-0.1,0.2-0.2,0.2-0.3C61.5,1.5,61.3,1.3,60.9,1.3z"/>
		<polygon class="st0" points="53.7,2.2 53.1,3.7 56.1,3.7 56.3,3.1 54.2,3.1 54.6,2.2 56.1,2.2 56.1,2.2 56.3,1.7 54.8,1.7 
			55.2,0.9 56.9,0.9 57.1,0.3 54.5,0.3 		"/>
		<polygon class="st0" points="49.1,1.7 47,1.7 47.5,0.3 46.7,0.3 45.9,2.2 45.2,3.7 46.1,3.7 46.7,2.3 48.8,2.3 48.2,3.7 49.1,3.7 
			49.7,2.2 50.5,0.3 49.6,0.3 		"/>
		<polygon class="st0" points="39.2,0.9 40.5,0.9 40,2.2 39.3,3.7 40.2,3.7 40.9,2.2 41.4,0.9 42.8,0.9 43,0.3 39.5,0.3 		"/>
	</g>
</g>
</svg>
