<?xml version="1.0" encoding="utf-8"?>
<!-- Generator: Adobe Illustrator 27.8.1, SVG Export Plug-In . SVG Version: 6.00 Build 0)  -->
<svg version="1.1" id="Layer_1" xmlns="http://www.w3.org/2000/svg" xmlns:xlink="http://www.w3.org/1999/xlink" x="0px" y="0px"
	 viewBox="0 0 150 29.9" style="enable-background:new 0 0 150 29.9;" xml:space="preserve">
<style type="text/css">
	.st0{fill:#1D1D1B;}
</style>
<g>
	<path class="st0" d="M54.3,12.4c0-2.6-1.7-5-5.5-5h-9.6v15.2h3.3V10.1h5.9c1.8,0,2.7,0.9,2.7,2.3c0,1.5-0.9,2.3-2.7,2.3h-2.5
		c-1.1,0-1.8,0.6-1.8,1.8v1h1.8c0.8,0,1.5,0.3,2,1l3.2,4.1h4l-4.5-5.7C53,16.3,54.3,14.8,54.3,12.4z"/>
	<path class="st0" d="M66,7.4h-3.3v15.2H66V7.4z"/>
	<path class="st0" d="M91,7.4h-3.5l-5.5,11.7L76.5,7.4h-3.5l7.2,15.2h3.5L91,7.4z"/>
	<path class="st0" d="M101.4,7.4h-3.3v15.2h3.3V7.4z"/>
	<path class="st0" d="M119.5,7.4H116l-7.5,15.2h3.5l0.9-1.9c0.4-0.8,1-1.2,1.9-1.2h5.6l-0.7-1.4c-0.4-0.9-1.1-1.3-2.1-1.3h-2.9
		l2.9-6l5.7,11.9h3.5L119.5,7.4z"/>
	<path class="st0" d="M150,7.4h-3.1v11.3l-9.1-11.3h-3.7v15.2h3.1V11.3l9.1,11.3h3.7V7.4z"/>
	<path class="st0" d="M30.8,13.8C29.1,12,19.6,2.3,17.8,0.9C17.2,0.4,16.4,0,15.4,0c-1,0-1.8,0.4-2.4,0.9C11.3,2.3,1.8,12,0.1,13.8
		c-0.1,0.2,0,0.4,0.2,0.4c0.9,0,2.9,0,4.1,0c0.4,0,0.6-0.1,0.8-0.4c0.3-0.3,1.6-1.7,1.6-1.7c1.7-1.8,5.9-5.9,7.4-7.2
		c0.6-0.5,1.2-0.5,1.2-0.5c0,0,0.7,0,1.2,0.5c1.5,1.3,5.7,5.3,7.4,7.2c0,0,1.3,1.4,1.6,1.7c0.3,0.3,0.4,0.4,0.8,0.4
		c1.2,0,3.2,0,4.1,0C30.8,14.2,31,14,30.8,13.8z"/>
	<path class="st0" d="M0.1,16.1c1.7,1.8,11.2,11.5,13,12.9c0.6,0.5,1.4,0.9,2.4,0.9c1,0,1.8-0.4,2.4-0.9c1.8-1.4,11.2-11.1,13-12.9
		c0.1-0.2,0-0.4-0.2-0.4c-0.9,0-2.9,0-4.1,0c-0.4,0-0.6,0.1-0.8,0.4c-0.3,0.3-1.6,1.7-1.6,1.7c-1.7,1.8-5.9,5.9-7.4,7.2
		c-0.6,0.5-1.2,0.5-1.2,0.5c0,0-0.7,0-1.2-0.5c-1.5-1.3-5.7-5.3-7.4-7.2c0,0-1.3-1.4-1.6-1.7c-0.3-0.3-0.4-0.4-0.8-0.4
		c-1.2,0-3.2,0-4.1,0C0,15.7-0.1,16,0.1,16.1z"/>
	<path class="st0" d="M14.3,18.2c-0.8-0.7-2.2-2-2.7-2.6c-0.2-0.3-0.2-0.6-0.2-0.6s0-0.3,0.2-0.6c0.5-0.6,1.9-1.9,2.7-2.6
		c0.3-0.3,0.4-0.5,0.4-0.8c0-1.1,0-3.2,0-4c0-0.2-0.2-0.3-0.3-0.1c-1.7,1.6-5.6,5.4-6.9,6.9C6.8,14.3,6.9,15,6.9,15
		s-0.1,0.7,0.6,1.3c1.3,1.5,5.2,5.3,6.9,6.9c0.2,0.1,0.3,0.1,0.3-0.1c0-0.8,0-2.9,0-4C14.7,18.7,14.6,18.5,14.3,18.2z"/>
	<path class="st0" d="M16.6,18.2c0.8-0.7,2.2-2,2.7-2.6c0.2-0.3,0.2-0.6,0.2-0.6s0-0.3-0.2-0.6c-0.5-0.6-1.9-1.9-2.7-2.6
		c-0.3-0.3-0.4-0.5-0.4-0.8c0-1.1,0-3.2,0-4c0-0.2,0.2-0.3,0.3-0.1c1.7,1.6,5.6,5.4,6.9,6.9C24,14.3,24,15,24,15s0.1,0.7-0.6,1.3
		c-1.3,1.5-5.2,5.3-6.9,6.9c-0.2,0.1-0.3,0.1-0.3-0.1c0-0.8,0-2.9,0-4C16.2,18.7,16.3,18.5,16.6,18.2z"/>
</g>
</svg>
