<?xml version="1.0" encoding="utf-8"?>
<!-- Generator: Adobe Illustrator 27.8.1, SVG Export Plug-In . SVG Version: 6.00 Build 0)  -->
<svg version="1.1" id="Layer_1" xmlns="http://www.w3.org/2000/svg" xmlns:xlink="http://www.w3.org/1999/xlink" x="0px" y="0px"
	 viewBox="0 0 150 47.2" style="enable-background:new 0 0 150 47.2;" xml:space="preserve">
<style type="text/css">
	.st0{fill:none;}
	.st1{fill:#EF4E38;}
</style>
<g>
	<rect x="-71" y="-71" class="st0" width="723.5" height="324.9"/>
</g>
<path class="st1" d="M63.9,10.2c-3.8,0-7.7,0.7-9.8,1.7c-0.5,0.3-0.8,0.5-0.8,1.1V36h7V15.8c0-0.2,0.1-0.2,0.3-0.3
	c0.4-0.2,1.8-0.5,3.1-0.5c3,0,4,1.8,4,3.6V36h7.1V19.1c0-1.7-0.1-2.7-0.4-3.4C73.5,12.4,70.4,10.2,63.9,10.2z M92,31.3
	c-3.7,0-7-2.9-7-7.8c0-4.9,3.2-8.1,6.7-8.1c1,0,2.3,0.3,3.3,0.8l1.7-4.8c-1.6-0.8-3.8-1.2-6.1-1.2c-7.6,0-12.7,5.2-12.7,13.5
	c0,8.4,5.5,12.8,12.9,12.8c2.5,0,4.4-0.4,6-1.2L95,30.5C93.9,31,93,31.3,92,31.3z M38.9,10.1c-3.8,0-6.7,0.9-9.8,2.1l1.5,4.5
	c2.5-1,4.4-1.7,6.8-1.7c2.7,0,5,0.8,5,3.5v0.8c-8.6,0.5-15.1,2.7-15.1,9.2c0,5.4,4.2,8,11.8,8c3.4,0,8.1-0.7,9.7-1.7
	c0.3-0.2,0.6-0.4,0.6-1.1V18.9C49.4,13.8,46.4,10.1,38.9,10.1z M42.3,30.9c0,0.4-0.2,0.6-0.5,0.7c-0.4,0.2-1.5,0.3-2.5,0.3
	c-2.9,0-5-1.4-5-3.6c0-2.9,3.2-4.3,8-4.5V30.9z M99.6,36h7V10.6h-7V36z M103.1,0C100.9,0,99,1.5,99,3.9c0,2.3,1.9,3.9,4.1,3.9
	c2.2,0,4.1-1.5,4.1-3.9C107.2,1.5,105.3,0,103.1,0z M133.2,10.6h-12.9V3.4l-7,2.2v5h-3.8v4.8h3.8V29c0,4.3,2,7.5,7.4,7.5
	c2.4,0,4.7-0.7,5.9-1.5l-1.5-4.7c-0.6,0.4-1.7,0.7-2.4,0.7c-1.2,0-2.3-0.5-2.4-2.8V15.4h6.3c1.1,8.8,4.8,15.4,9.7,19.1
	c-1.5,3-4.6,5.9-7.8,7.2l2.2,5.5c12.2-5.5,18.9-21.7,19.4-36.6h-6.9c-0.4,8-2,14.6-4,18.5C135.8,25.6,133.4,18.6,133.2,10.6z
	 M19.9,3.5c0.1,3.2-0.6,18.5-6.3,26C7.9,22,7.2,6.7,7.3,3.5H0c-0.1,5.1,1.2,23.3,11.2,32.1c0.1,0.1,0.4,0.4,0.8,0.4h3
	c0.4,0,0.7-0.3,0.8-0.4C26,26.8,27.2,8.6,27.1,3.5H19.9z"/>
</svg>
